<svg width="512" height="512" viewBox="0 0 512 512" fill="none" xmlns="http://www.w3.org/2000/svg">
<g clip-path="url(#clip0_2311_2893)">
<path d="M512 0H0V512H512V0Z" fill="#6FA975"/>
<path d="M160.001 245.333L343.467 192L334.934 164.267C331.734 153.6 320.001 147.2 308.267 150.4L164.267 193.067C153.601 196.267 147.201 208 150.401 219.733L160.001 245.333ZM160.001 245.333H352.001V330.667C352.001 336.325 349.753 341.751 345.752 345.752C341.752 349.752 336.325 352 330.667 352H181.334C175.676 352 170.25 349.752 166.249 345.752C162.248 341.751 160.001 336.325 160.001 330.667V245.333ZM194.134 184.533L227.201 226.133M260.267 164.267L293.334 206.933" stroke="white" stroke-width="25" stroke-linecap="round" stroke-linejoin="round"/>
</g>
<defs>
<clipPath id="clip0_2311_2893">
<rect width="512" height="512" rx="256" fill="white"/>
</clipPath>
</defs>
</svg>
