<svg width="512" height="512" viewBox="0 0 512 512" fill="none" xmlns="http://www.w3.org/2000/svg">
<g clip-path="url(#clip0_2300_30326)">
<g clip-path="url(#clip1_2300_30326)">
<path d="M0 256C0 397.385 114.615 512 256 512C397.385 512 512 397.385 512 256C512 114.615 397.385 0 256 0C114.615 0 0 114.615 0 256Z" fill="#EBDC7C"/>
<path d="M122 142V228.72C122 242.347 134.8 253.497 150.444 253.497H207.333C214.877 253.497 222.112 250.887 227.447 246.24C232.781 241.593 235.778 235.291 235.778 228.72V142M178.889 142V389.771M378 303.051V142C359.14 142 341.053 148.526 327.717 160.143C314.381 171.759 306.889 187.515 306.889 203.943V278.274C306.889 291.902 319.689 303.051 335.333 303.051H378ZM378 303.051V389.771" stroke="white" stroke-width="25" stroke-linecap="round" stroke-linejoin="round"/>
</g>
</g>
<defs>
<clipPath id="clip0_2300_30326">
<rect width="512" height="512" rx="256" fill="white"/>
</clipPath>
<clipPath id="clip1_2300_30326">
<rect width="512" height="512" fill="white"/>
</clipPath>
</defs>
</svg>
