<svg width="512" height="512" viewBox="0 0 512 512" fill="none" xmlns="http://www.w3.org/2000/svg">
<g clip-path="url(#clip0_1770_29207)">
<path d="M512 256C512 114.615 397.385 0 256 0C114.615 0 0 114.615 0 256C0 397.385 114.615 512 256 512C397.385 512 512 397.385 512 256Z" fill="#004D73"/>
<path d="M288 181.333L330.667 224M309.334 160C312.05 156.79 315.41 154.177 319.2 152.327C322.99 150.478 327.127 149.433 331.346 149.259C335.565 149.085 339.774 149.785 343.706 151.316C347.637 152.847 351.204 155.174 354.179 158.15C357.155 161.125 359.473 164.683 360.987 168.598C362.501 172.512 363.177 176.697 362.972 180.885C362.767 185.073 361.685 189.173 359.796 192.923C357.907 196.674 355.252 199.992 352 202.667L208 346.667L149.333 362.667L165.333 304L309.334 160Z" stroke="#FEFEFE" stroke-width="21.3333" stroke-linecap="round" stroke-linejoin="round"/>
</g>
<defs>
<clipPath id="clip0_1770_29207">
<rect width="512" height="512" fill="white"/>
</clipPath>
</defs>
</svg>
