<svg width="512" height="512" viewBox="0 0 512 512" fill="none" xmlns="http://www.w3.org/2000/svg">
<g clip-path="url(#clip0_1770_29199)">
<path d="M512 256C512 114.615 397.385 0 256 0C114.615 0 0 114.615 0 256C0 397.385 114.615 512 256 512C397.385 512 512 397.385 512 256Z" fill="#007ADC"/>
<path d="M317.867 332.8L298.667 245.333L336 208C352 192 357.333 170.667 352 160C341.333 154.667 320 160 304 176L266.667 213.333L179.2 194.133C173.867 193.067 169.6 195.2 167.467 199.467L164.267 204.8C162.133 210.133 163.2 215.467 167.467 218.667L224 256L202.667 288H170.667L160 298.667L192 320L213.333 352L224 341.333V309.333L256 288L293.333 344.533C296.533 348.8 301.867 349.867 307.2 347.733L312.533 345.6C316.8 342.4 318.933 338.133 317.867 332.8Z" stroke="#FEFEFE" stroke-width="21.3333" stroke-linecap="round" stroke-linejoin="round"/>
</g>
<defs>
<clipPath id="clip0_1770_29199">
<rect width="512" height="512" fill="white"/>
</clipPath>
</defs>
</svg>
