<svg width="512" height="512" viewBox="0 0 512 512" fill="none" xmlns="http://www.w3.org/2000/svg">
<g clip-path="url(#clip0_2308_2867)">
<path d="M512 0H0V512H512V0Z" fill="#775A94"/>
<path d="M372.846 162.06L311.512 146C311.512 157.67 305.611 168.861 295.107 177.113C284.602 185.364 270.355 190 255.5 190C240.645 190 226.398 185.364 215.893 177.113C205.389 168.861 199.488 157.67 199.488 146L138.154 162.06C131.816 163.719 126.442 167.103 123.001 171.601C119.56 176.099 118.279 181.415 119.39 186.59L127.512 224.76C128.045 227.344 129.734 229.694 132.275 231.388C134.816 233.081 138.042 234.008 141.375 234H171.481V344C171.481 356.1 184.084 366 199.488 366H311.512C318.94 366 326.064 363.682 331.316 359.556C336.568 355.431 339.519 349.835 339.519 344V234H369.625C372.958 234.008 376.184 233.081 378.725 231.388C381.266 229.694 382.955 227.344 383.488 224.76L391.61 186.59C392.721 181.415 391.44 176.099 387.999 171.601C384.559 167.103 379.184 163.719 372.846 162.06Z" stroke="white" stroke-width="20" stroke-linecap="round" stroke-linejoin="round"/>
<path d="M254.289 300C277.878 300 297 281.686 297 259.094C297 236.502 277.878 218.188 254.289 218.188C230.7 218.188 211.578 236.502 211.578 259.094C211.578 281.686 230.7 300 254.289 300Z" stroke="white" stroke-width="10" stroke-linecap="round" stroke-linejoin="round"/>
<path d="M237.205 267.275C237.205 267.275 243.612 275.456 254.289 275.456C264.967 275.456 271.374 267.275 271.374 267.275M241.476 246.822H241.519M267.103 246.822H267.145" stroke="white" stroke-width="10" stroke-linecap="round" stroke-linejoin="round"/>
</g>
<defs>
<clipPath id="clip0_2308_2867">
<rect width="512" height="512" rx="256" fill="white"/>
</clipPath>
</defs>
</svg>
