<svg width="512" height="512" viewBox="0 0 512 512" fill="none" xmlns="http://www.w3.org/2000/svg">
<g clip-path="url(#clip0_2308_2863)">
<path d="M512 0H0V512H512V0Z" fill="#9B4040"/>
<path d="M202.667 352H309.333M336 256L362.667 192M301.333 160C304.213 161.067 309.867 165.653 309.333 174.507C308.693 183.36 299.413 187.307 298.667 196.053C298.133 204.373 302.293 209.28 306.453 213.333M248 160C250.88 161.067 256.533 165.653 255.893 174.507C255.36 183.36 245.973 187.307 245.44 196.053C244.8 204.373 248.96 209.28 253.12 213.333M194.667 160C197.547 161.067 203.2 165.653 202.667 174.507C202.027 183.36 192.747 187.307 192 196.053C191.467 204.373 195.627 209.28 199.893 213.333M256 352C281.461 352 305.879 341.886 323.882 323.882C341.886 305.879 352 281.461 352 256H160C160 281.461 170.114 305.879 188.118 323.882C206.121 341.886 230.539 352 256 352Z" stroke="#FEFEFE" stroke-width="21.3333" stroke-linecap="round" stroke-linejoin="round"/>
</g>
<defs>
<clipPath id="clip0_2308_2863">
<rect width="512" height="512" rx="256" fill="white"/>
</clipPath>
</defs>
</svg>
