<svg width="512" height="512" viewBox="0 0 512 512" fill="none" xmlns="http://www.w3.org/2000/svg">
<g clip-path="url(#clip0_1770_29211)">
<path d="M512 256C512 114.615 397.385 0 256 0C114.615 0 0 114.615 0 256C0 397.385 114.615 512 256 512C397.385 512 512 397.385 512 256Z" fill="#B55793"/>
<path d="M213.333 277.333V282.667M298.667 277.333V282.667M256 181.333C263.147 181.333 270.4 182.293 277.333 184.107C296.32 162.773 330.987 153.813 345.813 160C360.747 166.187 341.333 234.667 341.333 234.667C347.413 246.08 352 258.56 352 271.36C352 318.933 309.013 352 256 352C202.987 352 160 320 160 271.36C160 258.027 165.333 245.76 170.667 234.667C170.667 234.667 150.507 166.187 165.333 160C180.16 153.813 215.68 162.453 234.667 183.787C241.664 182.177 248.82 181.354 256 181.333Z" stroke="#FEFEFE" stroke-width="21.3333" stroke-linecap="round" stroke-linejoin="round"/>
<path d="M248 301.333H264L256 309.333L248 301.333Z" stroke="#FEFEFE" stroke-width="21.3333" stroke-linecap="round" stroke-linejoin="round"/>
</g>
<defs>
<clipPath id="clip0_1770_29211">
<rect width="512" height="512" fill="white"/>
</clipPath>
</defs>
</svg>
