<svg width="512" height="512" viewBox="0 0 512 512" fill="none" xmlns="http://www.w3.org/2000/svg">
<g clip-path="url(#clip0_1770_29217)">
<path d="M512 256C512 114.615 397.385 0 256 0C114.615 0 0 114.615 0 256C0 397.385 114.615 512 256 512C397.385 512 512 397.385 512 256Z" fill="#00BC9C"/>
<path d="M256 181.333C256 175.004 257.877 168.817 261.393 163.555C264.909 158.293 269.907 154.191 275.754 151.769C281.601 149.347 288.036 148.713 294.243 149.948C300.45 151.183 306.152 154.231 310.627 158.706C315.103 163.181 318.15 168.883 319.385 175.09C320.62 181.298 319.986 187.732 317.564 193.579C315.142 199.426 311.041 204.424 305.778 207.94C300.516 211.457 294.329 213.333 288 213.333M256 181.333C256 175.004 254.123 168.817 250.607 163.555C247.091 158.293 242.093 154.191 236.246 151.769C230.399 149.347 223.965 148.713 217.757 149.948C211.55 151.183 205.848 154.231 201.373 158.706C196.897 163.181 193.85 168.883 192.615 175.09C191.38 181.298 192.014 187.732 194.436 193.579C196.858 199.426 200.959 204.424 206.222 207.94C211.484 211.457 217.671 213.333 224 213.333M256 181.333V192M288 213.333C294.329 213.333 300.516 215.21 305.778 218.726C311.041 222.243 315.142 227.24 317.564 233.087C319.986 238.935 320.62 245.369 319.385 251.576C318.15 257.784 315.103 263.485 310.627 267.961C306.152 272.436 300.45 275.484 294.243 276.718C288.036 277.953 281.601 277.319 275.754 274.897C269.907 272.475 264.909 268.374 261.393 263.112C257.877 257.849 256 251.662 256 245.333M288 213.333H277.333M224 213.333C217.671 213.333 211.484 215.21 206.222 218.726C200.959 222.243 196.858 227.24 194.436 233.087C192.014 238.935 191.38 245.369 192.615 251.576C193.85 257.784 196.897 263.485 201.373 267.961C205.848 272.436 211.55 275.484 217.757 276.718C223.965 277.953 230.399 277.319 236.246 274.897C242.093 272.475 247.091 268.374 250.607 263.112C254.123 257.849 256 251.662 256 245.333M224 213.333H234.667M256 245.333V234.667" stroke="#FEFEFE" stroke-width="21.3333" stroke-linecap="round" stroke-linejoin="round"/>
<path d="M256 234.667C267.782 234.667 277.334 225.115 277.334 213.333C277.334 201.551 267.782 192 256 192C244.218 192 234.667 201.551 234.667 213.333C234.667 225.115 244.218 234.667 256 234.667Z" stroke="#FEFEFE" stroke-width="21.3333" stroke-linecap="round" stroke-linejoin="round"/>
<path d="M256 234.667V362.667M256 362.667C300.8 362.667 330.667 344.885 330.667 309.333C285.867 309.333 256 327.115 256 362.667ZM256 362.667C211.2 362.667 181.333 344.885 181.333 309.333C226.133 309.333 256 327.115 256 362.667Z" stroke="#FEFEFE" stroke-width="21.3333" stroke-linecap="round" stroke-linejoin="round"/>
</g>
<defs>
<clipPath id="clip0_1770_29217">
<rect width="512" height="512" fill="white"/>
</clipPath>
</defs>
</svg>
