<svg width="512" height="512" viewBox="0 0 512 512" fill="none" xmlns="http://www.w3.org/2000/svg">
<path d="M0 256C0 397.385 114.615 512 256 512C397.385 512 512 397.385 512 256C512 114.615 397.385 0 256 0C114.615 0 0 114.615 0 256Z" fill="#FA5555" fill-opacity="0.92"/>
<g clip-path="url(#clip0_2312_3099)">
<path d="M181.558 111.768L154.375 133.616M169.261 208.353L142.079 230.2M223.765 108.81L210.173 119.733M173.976 130.247L161.957 115.136M161.68 226.832L149.66 211.721M219.974 118.049L213.964 110.494" stroke="white" stroke-width="8" stroke-linecap="round" stroke-linejoin="round"/>
<path d="M335.365 365.164V344.176C335.365 333.044 330.614 322.367 322.157 314.495C313.7 306.623 302.229 302.201 290.269 302.201H222.627C210.667 302.201 199.196 306.623 190.739 314.495C182.282 322.367 177.531 333.044 177.531 344.176V365.164" stroke="white" stroke-width="18" stroke-linecap="round" stroke-linejoin="round"/>
<path d="M256.447 260.225C281.352 260.225 301.542 241.432 301.542 218.249C301.542 195.067 281.352 176.273 256.447 176.273C231.541 176.273 211.352 195.067 211.352 218.249C211.352 241.432 231.541 260.225 256.447 260.225Z" stroke="white" stroke-width="18" stroke-linecap="round" stroke-linejoin="round"/>
<path d="M356.769 187.612L382.697 155.368C383.539 154.285 384.586 153.385 385.776 152.721C386.967 152.058 388.277 151.643 389.632 151.503C390.986 151.362 392.357 151.497 393.665 151.901C394.973 152.305 396.192 152.969 397.25 153.855C398.308 154.74 399.185 155.83 399.829 157.06C400.473 158.29 400.872 159.636 401.002 161.02C401.133 162.403 400.992 163.797 400.588 165.119C400.184 166.441 399.525 167.665 398.649 168.72L372.764 201.034M350.768 199.412C344.816 199.982 340.515 205.379 341.138 211.485C341.634 216.349 332.741 217.902 334.721 219.559C339.003 223.21 344.402 226.09 349.816 225.571C357.703 224.816 363.486 217.616 362.65 209.425C362.508 207.979 362.087 206.573 361.413 205.287C360.738 204.002 359.823 202.861 358.72 201.932C357.617 201.002 356.346 200.301 354.982 199.868C353.618 199.436 352.186 199.281 350.768 199.412Z" stroke="white" stroke-width="10" stroke-linecap="round" stroke-linejoin="round"/>
</g>
<defs>
<clipPath id="clip0_2312_3099">
<rect width="324" height="314" fill="white" transform="translate(94 99)"/>
</clipPath>
</defs>
</svg>
