<svg width="512" height="512" viewBox="0 0 512 512" fill="none" xmlns="http://www.w3.org/2000/svg">
<path d="M0 256C0 397.385 114.615 512 256 512C397.385 512 512 397.385 512 256C512 114.615 397.385 0 256 0C114.615 0 0 114.615 0 256Z" fill="#FA5555" fill-opacity="0.92"/>
<rect x="207" y="243" width="80" height="133" rx="10" fill="white"/>
<path d="M222.5 252V184.533C222.5 183.426 222.959 182.369 223.767 181.613L265.767 142.302C268.322 139.91 272.5 141.722 272.5 145.223V252" stroke="white" stroke-width="18" stroke-linecap="round"/>
<path d="M240 192.5L255 177.5" stroke="white" stroke-width="7" stroke-linecap="round"/>
<path d="M166.159 144.221C167.276 140.376 172.724 140.376 173.841 144.221L178.629 160.7C178.951 161.809 179.737 162.725 180.784 163.212L196.194 170.373C199.28 171.806 199.28 176.194 196.194 177.627L180.784 184.788C179.737 185.275 178.951 186.191 178.629 187.3L173.841 203.779C172.724 207.624 167.276 207.624 166.159 203.779L161.371 187.3C161.049 186.191 160.263 185.275 159.216 184.788L143.806 177.627C140.72 176.194 140.72 171.806 143.806 170.373L159.216 163.212C160.263 162.725 161.049 161.809 161.371 160.7L166.159 144.221Z" fill="white"/>
<path d="M313.126 194.6C313.98 191.747 318.02 191.747 318.874 194.6L321.519 203.434C321.768 204.267 322.367 204.95 323.159 205.308L331.935 209.265C334.291 210.327 334.291 213.673 331.935 214.735L323.159 218.692C322.367 219.05 321.768 219.733 321.519 220.566L318.874 229.4C318.02 232.253 313.98 232.253 313.126 229.4L310.481 220.566C310.232 219.733 309.633 219.05 308.841 218.692L300.065 214.735C297.709 213.673 297.709 210.327 300.065 209.265L308.841 205.308C309.633 204.95 310.232 204.267 310.481 203.434L313.126 194.6Z" fill="white"/>
</svg>
