<svg width="512" height="512" viewBox="0 0 512 512" fill="none" xmlns="http://www.w3.org/2000/svg">
<g clip-path="url(#clip0_2310_29808)">
<path d="M512 0H0V512H512V0Z" fill="#328644"/>
<path d="M256.001 362.667C314.911 362.667 362.667 314.91 362.667 256C362.667 197.09 314.911 149.333 256.001 149.333C197.09 149.333 149.334 197.09 149.334 256C149.334 314.91 197.09 362.667 256.001 362.667Z" stroke="white" stroke-width="25" stroke-linecap="round" stroke-linejoin="round"/>
<path d="M298.667 213.333H234.667C229.009 213.333 223.583 215.581 219.582 219.582C215.582 223.583 213.334 229.009 213.334 234.667C213.334 240.325 215.582 245.751 219.582 249.752C223.583 253.752 229.009 256 234.667 256H277.334C282.992 256 288.418 258.248 292.419 262.248C296.42 266.249 298.667 271.675 298.667 277.333C298.667 282.991 296.42 288.418 292.419 292.418C288.418 296.419 282.992 298.667 277.334 298.667H213.334M256.001 320V192" stroke="white" stroke-width="25" stroke-linecap="round" stroke-linejoin="round"/>
</g>
<defs>
<clipPath id="clip0_2310_29808">
<rect width="512" height="512" rx="256" fill="white"/>
</clipPath>
</defs>
</svg>
