<svg width="512" height="512" viewBox="0 0 512 512" fill="none" xmlns="http://www.w3.org/2000/svg">
<g clip-path="url(#clip0_2754_2932)">
<path d="M512 256C512 114.615 397.385 0 256 0C114.615 0 0 114.615 0 256C0 397.385 114.615 512 256 512C397.385 512 512 397.385 512 256Z" fill="#6A6A6A"/>
<path d="M282.666 149.333H191.999C186.341 149.333 180.915 151.581 176.914 155.582C172.914 159.582 170.666 165.009 170.666 170.667V341.333C170.666 346.991 172.914 352.417 176.914 356.418C180.915 360.419 186.341 362.667 191.999 362.667H319.999C325.657 362.667 331.084 360.419 335.084 356.418C339.085 352.417 341.333 346.991 341.333 341.333V208L282.666 149.333Z" stroke="white" stroke-width="21.3333" stroke-linecap="round" stroke-linejoin="round"/>
<path d="M234.666 237.867C236.799 233.6 239.999 229.333 244.266 227.2C248.683 224.646 253.84 223.677 258.884 224.453C263.927 225.229 268.554 227.703 271.999 231.467C275.199 235.733 277.333 240 277.333 245.333C277.333 259.2 255.999 266.667 255.999 266.667M255.999 309.333H256.106" stroke="white" stroke-width="21.3333" stroke-linecap="round" stroke-linejoin="round"/>
</g>
<defs>
<clipPath id="clip0_2754_2932">
<rect width="512" height="512" fill="white"/>
</clipPath>
</defs>
</svg>
