<svg width="512" height="512" viewBox="0 0 512 512" fill="none" xmlns="http://www.w3.org/2000/svg">
<g clip-path="url(#clip0_2308_2796)">
<path d="M512 0H0V512H512V0Z" fill="#71B2DE"/>
<path d="M323.001 213.333V192C323.001 186.342 320.753 180.916 316.752 176.915C312.751 172.914 307.325 170.667 301.667 170.667H173.667C168.009 170.667 162.583 172.914 158.582 176.915C154.582 180.916 152.334 186.342 152.334 192V266.667C152.334 272.325 154.582 277.751 158.582 281.752C162.583 285.752 168.009 288 173.667 288H259.001M237.667 330.667V288.427V322.027M205.667 330.667H259.001" stroke="#FEFEFE" stroke-width="21.3333" stroke-linecap="round" stroke-linejoin="round"/>
<path d="M344.335 256H323.001C311.219 256 301.668 265.551 301.668 277.333V341.333C301.668 353.116 311.219 362.667 323.001 362.667H344.335C356.117 362.667 365.668 353.116 365.668 341.333V277.333C365.668 265.551 356.117 256 344.335 256Z" stroke="#FEFEFE" stroke-width="21.3333" stroke-linecap="round" stroke-linejoin="round"/>
</g>
<defs>
<clipPath id="clip0_2308_2796">
<rect width="512" height="512" rx="256" fill="white"/>
</clipPath>
</defs>
</svg>
