<svg width="512" height="512" viewBox="0 0 512 512" fill="none" xmlns="http://www.w3.org/2000/svg">
<g clip-path="url(#clip0_2296_3045)">
<path d="M512 0H0V512H512V0Z" fill="#00679C"/>
<path d="M179.201 152.533C179.239 153.204 179.486 153.845 179.909 154.366C180.332 154.888 180.908 155.264 181.555 155.44C182.203 155.616 182.89 155.584 183.518 155.349C184.147 155.113 184.686 154.686 185.058 154.127C185.43 153.569 185.618 152.907 185.593 152.236C185.569 151.565 185.334 150.919 184.923 150.389C184.511 149.859 183.943 149.472 183.299 149.282C182.655 149.093 181.967 149.111 181.334 149.333H170.667C165.009 149.333 159.583 151.581 155.582 155.582C151.582 159.582 149.334 165.009 149.334 170.667V224C149.334 240.974 156.077 257.252 168.079 269.255C180.081 281.257 196.36 288 213.334 288C230.308 288 246.586 281.257 258.589 269.255C270.591 257.252 277.334 240.974 277.334 224V170.667C277.334 165.009 275.086 159.582 271.086 155.582C267.085 151.581 261.659 149.333 256.001 149.333H245.334C245.124 149.543 244.957 149.793 244.843 150.067C244.73 150.342 244.671 150.636 244.671 150.933C244.671 151.23 244.73 151.525 244.843 151.799C244.957 152.074 245.124 152.323 245.334 152.533C245.544 152.743 245.794 152.91 246.068 153.024C246.343 153.138 246.637 153.196 246.934 153.196C247.231 153.196 247.525 153.138 247.8 153.024C248.074 152.91 248.324 152.743 248.534 152.533" stroke="white" stroke-width="25" stroke-linecap="round" stroke-linejoin="round"/>
<path d="M213.334 288V298.667C213.334 315.641 220.077 331.919 232.079 343.922C244.081 355.924 260.36 362.667 277.334 362.667C294.308 362.667 310.587 355.924 322.589 343.922C334.591 331.919 341.334 315.641 341.334 298.667V256" stroke="white" stroke-width="25" stroke-linecap="round" stroke-linejoin="round"/>
<path d="M341.333 256C353.115 256 362.667 246.449 362.667 234.667C362.667 222.885 353.115 213.333 341.333 213.333C329.551 213.333 320 222.885 320 234.667C320 246.449 329.551 256 341.333 256Z" stroke="white" stroke-width="25" stroke-linecap="round" stroke-linejoin="round"/>
</g>
<defs>
<clipPath id="clip0_2296_3045">
<rect width="512" height="512" rx="256" fill="white"/>
</clipPath>
</defs>
</svg>
