<svg width="512" height="512" viewBox="0 0 512 512" fill="none" xmlns="http://www.w3.org/2000/svg">
<g clip-path="url(#clip0_2308_2848)">
<path d="M512 0H0V512H512V0Z" fill="#56423C"/>
<path d="M350.75 310.708H375.25C382.6 310.708 387.5 305.492 387.5 297.667V258.542C387.5 246.804 378.925 236.371 369.125 233.763C347.075 227.242 314 219.417 314 219.417C314 219.417 298.075 201.158 287.05 189.421C280.925 184.204 273.575 180.292 265 180.292H179.25C171.9 180.292 165.775 185.508 162.1 192.029L144.95 229.85C143.328 234.887 142.5 240.175 142.5 245.5V297.667C142.5 305.492 147.4 310.708 154.75 310.708H179.25" stroke="#FEFEFE" stroke-width="21.3333" stroke-linecap="round" stroke-linejoin="round"/>
<path d="M203.75 336.792C217.281 336.792 228.25 325.114 228.25 310.708C228.25 296.303 217.281 284.625 203.75 284.625C190.219 284.625 179.25 296.303 179.25 310.708C179.25 325.114 190.219 336.792 203.75 336.792Z" stroke="#FEFEFE" stroke-width="21.3333" stroke-linecap="round" stroke-linejoin="round"/>
<path d="M228.25 310.708H301.75" stroke="#FEFEFE" stroke-width="21.3333" stroke-linecap="round" stroke-linejoin="round"/>
<path d="M326.25 336.792C339.781 336.792 350.75 325.114 350.75 310.708C350.75 296.303 339.781 284.625 326.25 284.625C312.719 284.625 301.75 296.303 301.75 310.708C301.75 325.114 312.719 336.792 326.25 336.792Z" stroke="#FEFEFE" stroke-width="21.3333" stroke-linecap="round" stroke-linejoin="round"/>
</g>
<defs>
<clipPath id="clip0_2308_2848">
<rect width="512" height="512" rx="256" fill="white"/>
</clipPath>
</defs>
</svg>
