<svg width="512" height="512" viewBox="0 0 512 512" fill="none" xmlns="http://www.w3.org/2000/svg">
<g clip-path="url(#clip0_1768_28892)">
<path d="M512 256C512 114.615 397.385 0 256 0C114.615 0 0 114.615 0 256C0 397.385 114.615 512 256 512C397.385 512 512 397.385 512 256Z" fill="#BEA69F"/>
<path d="M309.333 213.333H320C331.316 213.333 342.168 217.829 350.17 225.83C358.171 233.832 362.667 244.684 362.667 256C362.667 267.316 358.171 278.168 350.17 286.17C342.168 294.171 331.316 298.667 320 298.667H309.333M309.333 213.333H160V309.333C160 320.649 164.495 331.502 172.497 339.503C180.498 347.505 191.351 352 202.667 352H266.667C277.983 352 288.835 347.505 296.837 339.503C304.838 331.502 309.333 320.649 309.333 309.333V213.333ZM192 149.333V170.667M234.667 149.333V170.667M277.333 149.333V170.667" stroke="#FEFEFE" stroke-width="21.3333" stroke-linecap="round" stroke-linejoin="round"/>
</g>
<defs>
<clipPath id="clip0_1768_28892">
<rect width="512" height="512" fill="white"/>
</clipPath>
</defs>
</svg>
