<svg width="512" height="512" viewBox="0 0 512 512" fill="none" xmlns="http://www.w3.org/2000/svg">
<g clip-path="url(#clip0_2308_2834)">
<path d="M512 0H0V512H512V0Z" fill="#FFCAAB"/>
<path d="M224 256H224.107M288 256H288.107M234.667 298.667C240 301.867 247.467 304 256 304C264.533 304 272 301.867 277.333 298.667" stroke="#FEFEFE" stroke-width="21.3333" stroke-linecap="round" stroke-linejoin="round"/>
<path d="M330.667 195.2C340.331 207.314 346.919 221.587 349.867 236.8C353.474 238.547 356.516 241.274 358.644 244.67C360.773 248.066 361.902 251.992 361.902 256C361.902 260.008 360.773 263.934 358.644 267.33C356.516 270.726 353.474 273.453 349.867 275.2C345.262 296.677 333.432 315.926 316.349 329.734C299.267 343.542 277.966 351.074 256.001 351.074C234.035 351.074 212.734 343.542 195.652 329.734C178.57 315.926 166.739 296.677 162.134 275.2C158.527 273.453 155.485 270.726 153.357 267.33C151.228 263.934 150.1 260.008 150.1 256C150.1 251.992 151.228 248.066 153.357 244.67C155.485 241.274 158.527 238.547 162.134 236.8C166.553 215.152 178.303 195.691 195.404 181.7C212.504 167.709 233.906 160.045 256.001 160C277.334 160 293.334 171.733 293.334 186.667C293.334 201.6 283.734 213.333 272.001 213.333C263.467 213.333 256.001 209.067 256.001 202.667" stroke="#FEFEFE" stroke-width="21.3333" stroke-linecap="round" stroke-linejoin="round"/>
</g>
<defs>
<clipPath id="clip0_2308_2834">
<rect width="512" height="512" rx="256" fill="white"/>
</clipPath>
</defs>
</svg>
