<svg width="512" height="512" viewBox="0 0 512 512" fill="none" xmlns="http://www.w3.org/2000/svg">
<rect width="512" height="512" rx="256" fill="#D77DC9"/>
<path d="M213.335 362.667C219.226 362.667 224.001 357.891 224.001 352C224.001 346.109 219.226 341.333 213.335 341.333C207.444 341.333 202.668 346.109 202.668 352C202.668 357.891 207.444 362.667 213.335 362.667Z" stroke="white" stroke-width="25" stroke-linecap="round" stroke-linejoin="round"/>
<path d="M330.667 362.667C336.558 362.667 341.333 357.891 341.333 352C341.333 346.109 336.558 341.333 330.667 341.333C324.776 341.333 320 346.109 320 352C320 357.891 324.776 362.667 330.667 362.667Z" stroke="white" stroke-width="25" stroke-linecap="round" stroke-linejoin="round"/>
<path d="M149.867 149.867H171.201L199.574 282.347C200.615 287.198 203.314 291.536 207.208 294.612C211.102 297.688 215.946 299.31 220.907 299.2H325.227C330.082 299.192 334.79 297.528 338.571 294.484C342.353 291.439 344.983 287.195 346.027 282.453L363.627 203.2H182.614" stroke="white" stroke-width="25" stroke-linecap="round" stroke-linejoin="round"/>
</svg>
